inDegrees=no
num_controls=7
num_derivatives=13
num_iterations=143
num_multipliers=7
num_parameters=0
num_slacks=7
num_states=26
objective=5.511904
objective_accelerations=0.707774
objective_balance=0.051688
objective_effort=0.282610
objective_height=4.423368
objective_ligament=0.046464
solver_duration=1629.831007
status=Solve_Succeeded
success=true
DataType=double
version=3
OpenSimVersion=4.4-2022-07-23-0e9fedc
endheader
time	/jointset/ground_pelvis/pelvis_tilt/value	/jointset/ground_pelvis/pelvis_tx/value	/jointset/ground_pelvis/pelvis_ty/value	/jointset/hip_l/hip_flexion_l/value	/jointset/hip_l/hip_adduction_l/value	/jointset/hip_l/hip_rotation_l/value	/jointset/back/lumbar_extension/value	/jointset/patellofemoral_l/patellar_flexion_l/value	/jointset/knee_l/knee_flexion_l/value	/jointset/knee_l/knee_adduction_l/value	/jointset/knee_l/knee_rotation_l/value	/jointset/ankle_l/ankle_angle_l/value	/jointset/subtalar_l/subtalar_angle_l/value	/jointset/ground_pelvis/pelvis_tilt/speed	/jointset/ground_pelvis/pelvis_tx/speed	/jointset/ground_pelvis/pelvis_ty/speed	/jointset/hip_l/hip_flexion_l/speed	/jointset/hip_l/hip_adduction_l/speed	/jointset/hip_l/hip_rotation_l/speed	/jointset/back/lumbar_extension/speed	/jointset/patellofemoral_l/patellar_flexion_l/speed	/jointset/knee_l/knee_flexion_l/speed	/jointset/knee_l/knee_adduction_l/speed	/jointset/knee_l/knee_rotation_l/speed	/jointset/ankle_l/ankle_angle_l/speed	/jointset/subtalar_l/subtalar_angle_l/speed	/forceset/tau_hip_flexion_l	/forceset/tau_hip_adduction_l	/forceset/tau_hip_rotation_l	/forceset/tau_knee_flexion_l	/forceset/tau_ankle_angle_l	/forceset/tau_subtalar_angle_l	/forceset/tau_lumbar_extension	lambda_cid13_p0	lambda_cid13_p1	lambda_cid13_p2	lambda_cid13_p3	lambda_cid13_p4	lambda_cid13_p5	lambda_cid14_p0	/jointset/ground_pelvis/pelvis_tilt/accel	/jointset/ground_pelvis/pelvis_tx/accel	/jointset/ground_pelvis/pelvis_ty/accel	/jointset/hip_l/hip_flexion_l/accel	/jointset/hip_l/hip_adduction_l/accel	/jointset/hip_l/hip_rotation_l/accel	/jointset/back/lumbar_extension/accel	/jointset/patellofemoral_l/patellar_flexion_l/accel	/jointset/knee_l/knee_flexion_l/accel	/jointset/knee_l/knee_adduction_l/accel	/jointset/knee_l/knee_rotation_l/accel	/jointset/ankle_l/ankle_angle_l/accel	/jointset/subtalar_l/subtalar_angle_l/accel	gamma_cid13_p0	gamma_cid13_p1	gamma_cid13_p2	gamma_cid13_p3	gamma_cid13_p4	gamma_cid13_p5	gamma_cid14_p0
0.5	-0.3616118405168774	-0.04216171993273519	0.7605255641615165	1.113639737085994	-0.4383433557201811	-0.2258691841981769	-0.2544435315844107	0.7875046437951135	0.7875046437951109	-0.1394540571400381	-0.1595236310349041	0.09126191854714059	-0.04322377777170407	-0.8274373437890797	-0.2288074089716407	-0.5251630404228916	2.514682440141274	-0.2088898560426614	0.7532635003641324	-0.1152559726281207	1.934118099436238	1.934118099436342	0.09710067359906163	-0.08263223273591545	0.4116488265198525	-0.03126342117855065	-0.1802669650036783	0.02314747241572191	-0.009370625097516716	-0.204734909442942	0.06134716323535822	0.04634126325561029	0.1744364405871974	-13.15664329607081	-20.96875184303629	6.600991309816929	-5.550009735815821	-522.7980841470916	-62.7038508921059	-26.11696027242199	0.8144688717438345	0.5945833171389577	-0.4364421066935688	-1.378926079148968	0.7572690069980368	-0.1613785485489965	1.090175978482921	-1.250330769579172	-1.250330769579053	0.06931229106515374	0.1786484190002828	-0.4693984753201381	0.569401606342367	-4.889931347885113e-07	-8.433450908915607e-07	2.007434559397909e-06	-6.88661212738364e-09	-5.529699384251339e-07	2.824613997156298e-08	-4.322999803449491e-07
0.51	-0.3698434474639019	-0.04441974616493752	0.755253281945354	1.138712521952559	-0.4403955737738237	-0.2183443661871965	-0.2555428495068556	0.8067803079499294	0.8067803079499491	-0.1384833736702557	-0.1603412073090051	0.09535382790520686	-0.04350981635895824	-0.818763843533215	-0.2227742465534857	-0.5291799152115826	2.499522652206127	-0.2015374467300723	0.7515802495683709	-0.1046479609071729	1.92075767366789	1.920757673668071	0.09704690544876479	-0.0808874181369845	0.4066707477218521	-0.02594894402875145	-0.1860372964864374	0.02401279099428568	-0.009527950174146678	-0.2071816527648605	0.06103935975846247	0.046813870106118	0.1788137329913087	-13.45675640201244	-21.09870173964454	6.59571570898645	-5.569295041776168	-526.4368129946175	-62.26901995539171	-25.23419323186565	0.911762839278115	0.6112326545837389	-0.3674036742794567	-1.637355937832619	0.7264625004575127	-0.1901545452602788	1.040061411700526	-1.417366682273435	-1.417366682261923	-0.04110964995753991	0.1722217770112006	-0.5213669018369863	0.5116097934072833	-5.232491150176495e-07	-6.213607864407005e-07	2.366263516658901e-06	6.916012846759273e-08	-5.741954285495445e-07	9.743478641971853e-08	-4.501356103564353e-07
0.52	-0.3779847249610039	-0.0466167307828723	0.7499442122794404	1.16362313878239	-0.4423738206129174	-0.2108400519242125	-0.2565372977835172	0.8259146742067117	0.8259146742067132	-0.1375129055384134	-0.1611413706777287	0.09939408561133604	-0.04374288236989254	-0.8093714538065525	-0.2165990861181314	-0.5325205303731169	2.482248832785584	-0.1940956131347683	0.7491627507657952	-0.0942820434742429	1.905858519827112	1.905858519827371	0.09705760602325586	-0.07914965167119344	0.4013184961319728	-0.02066890591460979	-0.1918076279688302	0.02487810957288833	-0.009685275251202755	-0.2096283960867317	0.06073155628155015	0.04728647695666712	0.1831910253957749	-13.76045681510002	-21.23000188675991	6.592916675774649	-5.621431113445309	-530.1551822926857	-61.89354338657242	-24.35281403820759	0.9582467659033929	0.6229829205788188	-0.3011901812622202	-1.801732376227947	0.7751538635409315	-0.3082281499118336	1.041757120879389	-1.558076384064998	-1.558076384064986	0.08220603602273148	0.1772387923722845	-0.5442330336959069	0.562513799210862	-5.162433305979651e-07	-5.188902071539286e-07	2.430331749243561e-06	9.460641466848448e-08	-5.559114123758675e-07	1.613817867022601e-07	-4.455889116501367e-07
0.53	-0.3860286897456387	-0.04875138846335786	0.7446051147760071	1.188350879119921	-0.4442772512491542	-0.2033629264140563	-0.25742935908878	0.8448925057863343	0.8448925057863521	-0.136542360704353	-0.1619237916168644	0.1033789322126169	-0.04392339867683978	-0.7993115924789846	-0.2103216653544517	-0.5351842250152063	2.462969204602881	-0.1865835720094733	0.7461658091245499	-0.08418749359065882	1.889458198597702	1.889458198597771	0.09703939794428296	-0.07732556216585591	0.3955821954834382	-0.01545321773002361	-0.1975104962624816	0.02549602483663673	-0.009780154639902634	-0.2119040148765077	0.05999865020584863	0.04773959923344435	0.1874433871088102	-14.1984875214217	-21.32619987195421	6.580956360760286	-5.447128236008401	-533.7756796271113	-61.54405527511638	-23.47382849546088	1.046279782322235	0.6317609423635794	-0.2318565724783727	-2.040655579281399	0.740014826136967	-0.3102737850964867	0.9847125202076168	-1.718360977461221	-1.718360977489685	-0.04562000297642207	0.1868453736466034	-0.5986211264659956	0.498054589390273	-4.93887794821986e-07	-4.265029480436422e-07	2.403195332261059e-06	1.118528081491839e-07	-5.2612352780227e-07	2.148038073060034e-07	-4.285734365251413e-07
0.54	-0.3939687711237621	-0.05082294407858652	0.7392428008327937	1.21287590766763	-0.446105404356313	-0.1959187396430718	-0.2582221931755843	0.8636988639566661	0.8636988639566675	-0.135572355105771	-0.1626876013920663	0.1073043572982103	-0.04405236644967939	-0.7885947725059024	-0.2039786730667555	-0.5371638183291301	2.441706474820556	-0.1790401073196709	0.7425750029286934	-0.07443659978269765	1.871563837965009	1.871563837964889	0.09694975894055788	-0.07542741889924097	0.3894341929935558	-0.01035919909312469	-0.2032133645561263	0.02611394010044436	-0.009875034029303223	-0.214179633666217	0.05926574413017963	0.04819272151031674	0.1916957488218219	-14.64088397234328	-21.42337963746264	6.571148667385925	-5.301450970125347	-537.4869441441749	-61.25640526031021	-22.59869632217498	1.089638495006155	0.6360972253821277	-0.1643699156290565	-2.1983526961525	0.7814385764423822	-0.4270010608341032	0.973025905754775	-1.856884264721539	-1.856884264721555	0.06791985107228427	0.1920495446277563	-0.6265734019654522	0.5381798896733994	-4.545495554177659e-07	-3.452717027456378e-07	2.275151643417013e-06	1.200269798969045e-07	-4.836079590415262e-07	2.565811695417145e-07	-3.977627194049917e-07
0.55	-0.40179863042249	-0.05283079216723775	0.7338641275916623	1.237178778459309	-0.4478578190234843	-0.1885134578551913	-0.2589192279026218	0.8823190028483423	0.8823190028482957	-0.1346031497903326	-0.1634319825891804	0.1111664127971913	-0.0441307474142187	-0.7772723958451307	-0.1975834427580071	-0.5384531197593047	2.418543301086891	-0.1714410616320303	0.7383820622213196	-0.06504468222179044	1.852226590404169	1.852226590404065	0.09688312556656963	-0.07344105110000661	0.3829195403911114	-0.005335707708371074	-0.20867488913957	0.02655364157156568	-0.009935978791879914	-0.2166927385063974	0.05892258189131299	0.04838140169774807	0.1957300733207059	-14.9607118165685	-21.42322432913103	6.541311219157559	-5.17726882797633	-541.1321092259614	-60.79775084941388	-21.72960188710094	1.169185636083609	0.6423861165636978	-0.09364581957148145	-2.424021448292171	0.7491575979391923	-0.430644435892416	0.9111241918788802	-2.007671304904572	-2.007671304902392	-0.04516472682140515	0.2035479154536253	-0.6725078762083837	0.4814178066693682	-4.215264739831978e-07	-2.701191819960787e-07	2.177800603417424e-06	1.29901110075464e-07	-4.477167213114511e-07	2.973927947805172e-07	-3.72179445784497e-07
0.5600000000000001	-0.4095121362777076	-0.054774457916213	0.7284760742236573	1.261240273166351	-0.4495342392271821	-0.1811531462464227	-0.2595245735519379	0.9007386640037551	0.9007386640037276	-0.1336348527675991	-0.16415617660481	0.1149616024327821	-0.0441594966561517	-0.765324083805546	-0.1911422051315633	-0.5390398437038939	2.393431257900469	-0.1638412146238154	0.7335809671058022	-0.05609878423608702	1.831468290717754	1.831468290717664	0.09676810038509627	-0.07138998258547366	0.3760610203156921	-0.0004328545718958091	-0.2141364137233984	0.02699334304265505	-0.009996923553680988	-0.2192058433466232	0.05857941965247887	0.04857008188515102	0.1997643978192043	-15.28428491754566	-21.42321708404092	6.512416934383976	-5.081657338948951	-544.8619573367937	-60.39108494893993	-20.87109467343944	1.214825570768598	0.6452986889212152	-0.02385441851201226	-2.588126586703703	0.7815988405572982	-0.5486319424628188	0.8838219907139337	-2.141094689836748	-2.141094689836748	0.05824148957522787	0.2049896876874408	-0.6953468965604379	0.5140522400177013	-3.96081582112212e-07	-2.022611307046537e-07	2.117280742031183e-06	1.418151903710302e-07	-4.197746808181781e-07	3.370455356230297e-07	-3.528691043635881e-07
0.5700000000000001	-0.4171032208873447	-0.05665358450293385	0.7230856608427028	1.285041283409178	-0.4511345774188971	-0.1738437346804891	-0.2600427448818625	0.9189437832520864	0.9189437832520683	-0.1326677902105285	-0.1648593920784167	0.1186865347475387	-0.04413971205337521	-0.7527926362977848	-0.1846845765513613	-0.5389246281388821	2.366459378613977	-0.1562296309830132	0.7282068744840734	-0.04762991007619662	1.809328261491712	1.809328261491857	0.09663278959346726	-0.06924242033501664	0.3688692951984989	0.004365677444536868	-0.2194387957692304	0.02723625576067646	-0.0100039523840606	-0.22164388590075	0.05803624619537268	0.0486922144644203	0.2036159572249423	-15.66666944240786	-21.37995678276144	6.471994970739427	-4.839845529178985	-548.4430709093572	-59.96923116405128	-20.02556418259569	1.287283523782013	0.6458050025836614	0.04685940238732109	-2.798489746138508	0.7502102331205625	-0.5462429664896407	0.8142558794767455	-2.284483268223287	-2.284483268188124	-0.05113336473032127	0.221669993265385	-0.7394925635964965	0.458922119594424	-3.700385933266383e-07	-1.286268525348039e-07	2.065143447343104e-06	1.55248207613742e-07	-3.916603837439502e-07	3.748597543983331e-07	-3.331174637139828e-07
0.58	-0.4245659951852959	-0.05846817279184995	0.7176999295890745	1.30856322062985	-0.4526589453527457	-0.1665909530496568	-0.2604790603200142	0.9369206969623074	0.9369206969623008	-0.1317024239616169	-0.1655407258296109	0.1223378683622665	-0.04407270844300659	-0.7396620214699596	-0.1782345455706115	-0.5381034182386571	2.337616653466814	-0.148647163051068	0.7222549800838808	-0.03972760588231064	1.785827183096263	1.785827183096642	0.09642883875390941	-0.06701363810294014	0.3613412803093986	0.009010946946505328	-0.2247411778149784	0.02747916847873783	-0.01001098121453634	-0.2240819284548607	0.05749307273827643	0.04881434704374269	0.2074675166307492	-16.05230184849797	-21.33649257610907	6.431958456310232	-4.627040821641264	-552.1023856768686	-59.59457927000615	-19.1947240723933	1.334659034781395	0.6437791690307423	0.1173444485306156	-2.962295758838081	0.7757756987858837	-0.6641922981555691	0.7705079975130441	-2.413304523718017	-2.413304523718093	0.04451347998944707	0.2212336840113216	-0.7626048509418776	0.4833997371248302	-3.432166876290437e-07	-4.747004633723899e-08	2.023922983703796e-06	1.706593752992478e-07	-3.633217525177814e-07	4.102796188535499e-07	-3.127911077897964e-07
